<svg xmlns="http://www.w3.org/2000/svg" xmlns:xlink="http://www.w3.org/1999/xlink" width="1080" zoomAndPan="magnify" viewBox="0 0 810 1439.999935" height="1920" preserveAspectRatio="xMidYMid meet" version="1.0"><defs><g/><clipPath id="id1"><path d="M 188 594 L 386 594 L 386 767.140625 L 188 767.140625 Z M 188 594 " clip-rule="nonzero"/></clipPath><clipPath id="id2"><path d="M 300 641 L 437.683594 641 L 437.683594 715 L 300 715 Z M 300 641 " clip-rule="nonzero"/></clipPath><clipPath id="id3"><path d="M 367.878906 798.113281 L 381.378906 798.113281 L 381.378906 811.613281 L 367.878906 811.613281 Z M 367.878906 798.113281 " clip-rule="nonzero"/></clipPath></defs><rect x="-81" width="972" fill="#ffffff" y="-143.999994" height="1727.999922" fill-opacity="1"/><rect x="-81" width="972" fill="#c0d5dc" y="-143.999994" height="1727.999922" fill-opacity="1"/><rect x="-81" width="972" fill="#ffffff" y="-143.999994" height="1727.999922" fill-opacity="1"/><rect x="-81" width="972" fill="#c0d5dc" y="-143.999994" height="1727.999922" fill-opacity="1"/><g clip-path="url(#id1)"><path fill="#003882" d="M 287.925781 767.132812 C 285.488281 767.132812 283.09375 766.425781 280.898438 765.003906 C 253.070312 747.035156 221.78125 724.175781 200.710938 690.90625 C 187.867188 670.625 185.121094 649.847656 192.542969 629.132812 C 198.679688 611.992188 212.476562 599.925781 230.382812 596.027344 C 248.046875 592.1875 266.019531 597 277.328125 608.609375 C 278.484375 609.796875 279.664062 610.953125 280.839844 612.121094 C 283.109375 614.363281 285.378906 616.605469 287.480469 618.984375 C 287.664062 619.191406 287.8125 619.339844 287.929688 619.453125 C 288.105469 619.316406 288.347656 619.109375 288.667969 618.796875 C 289.792969 617.683594 290.910156 616.554688 292.027344 615.425781 C 296.214844 611.1875 300.550781 606.808594 305.519531 603.214844 C 323.511719 590.1875 352.875 592.535156 369.632812 608.34375 C 377.894531 616.140625 383.363281 625.496094 385.890625 636.15625 C 386.371094 638.183594 385.117188 640.21875 383.089844 640.703125 C 381.078125 641.164062 379.027344 639.929688 378.546875 637.898438 C 376.335938 628.574219 371.722656 620.703125 364.453125 613.839844 C 350.402344 600.589844 324.9375 598.492188 309.945312 609.332031 C 305.480469 612.5625 301.546875 616.539062 297.390625 620.738281 C 296.253906 621.894531 295.113281 623.039062 293.964844 624.175781 C 292.597656 625.523438 290.539062 627.421875 287.652344 627.199219 C 285.582031 627.132812 283.675781 626.078125 281.828125 623.992188 C 279.835938 621.734375 277.6875 619.621094 275.539062 617.496094 C 274.324219 616.300781 273.109375 615.101562 271.921875 613.878906 C 262.558594 604.277344 246.875 600.171875 231.988281 603.410156 C 216.679688 606.742188 204.894531 617.050781 199.648438 631.679688 C 193.050781 650.085938 195.554688 668.652344 207.089844 686.863281 C 227.375 718.898438 257.851562 741.132812 284.984375 758.660156 C 287.058594 759.992188 289.320312 759.863281 291.71875 758.285156 L 293.609375 757.039062 C 296.929688 754.859375 300.253906 752.679688 303.480469 750.367188 C 317.105469 740.625 331.488281 729.878906 344.355469 717.351562 C 345.855469 715.894531 348.246094 715.9375 349.691406 717.421875 C 351.144531 718.917969 351.117188 721.3125 349.621094 722.761719 C 336.390625 735.648438 321.738281 746.597656 307.871094 756.515625 C 304.5625 758.882812 301.15625 761.121094 297.753906 763.355469 L 295.871094 764.589844 C 293.308594 766.285156 290.59375 767.132812 287.925781 767.132812 " fill-opacity="1" fill-rule="nonzero"/></g><g clip-path="url(#id2)"><path fill="#003882" d="M 373.066406 714.445312 C 372.996094 714.445312 372.914062 714.445312 372.835938 714.441406 C 371.035156 714.324219 369.566406 712.964844 369.328125 711.175781 L 362.882812 663.738281 L 352.917969 699.257812 C 352.488281 700.785156 351.148438 701.882812 349.5625 702 C 347.96875 702.078125 346.492188 701.234375 345.839844 699.777344 L 338.433594 683.246094 L 303.886719 683.246094 C 301.800781 683.246094 300.113281 681.554688 300.113281 679.46875 C 300.113281 677.382812 301.800781 675.691406 303.886719 675.691406 L 340.878906 675.691406 C 342.367188 675.691406 343.714844 676.566406 344.324219 677.925781 L 348.46875 687.171875 L 360.539062 644.15625 C 361.015625 642.433594 362.503906 641.269531 364.433594 641.410156 C 366.214844 641.53125 367.671875 642.894531 367.914062 644.667969 L 374.246094 691.316406 L 382.203125 661.039062 C 382.632812 659.421875 384.066406 658.273438 385.734375 658.222656 C 387.566406 658.28125 388.914062 659.226562 389.441406 660.804688 L 395.691406 679.570312 L 433.839844 679.570312 C 435.925781 679.570312 437.617188 681.265625 437.617188 683.347656 C 437.617188 685.433594 435.925781 687.125 433.839844 687.125 L 392.96875 687.125 C 391.339844 687.125 389.902344 686.085938 389.386719 684.546875 L 386.285156 675.222656 L 376.71875 711.628906 C 376.28125 713.292969 374.769531 714.445312 373.066406 714.445312 " fill-opacity="1" fill-rule="nonzero"/></g><g fill="#003882" fill-opacity="1"><g transform="translate(403.992976, 710.658682)"><g><path d="M 35.859375 0 L 6.4375 0 L 6.4375 -51.109375 L 35.859375 -51.109375 L 35.859375 -42.234375 L 17.265625 -42.234375 L 17.265625 -31 L 34.578125 -31 L 34.578125 -22.125 L 17.265625 -22.125 L 17.265625 -8.953125 L 35.859375 -8.953125 Z M 35.859375 0 "/></g></g></g><g fill="#003882" fill-opacity="1"><g transform="translate(444.082813, 710.658682)"><g><path d="M 48.84375 -26.046875 C 48.84375 -17.628906 46.445312 -11.179688 41.65625 -6.703125 C 36.863281 -2.234375 29.945312 0 20.90625 0 L 6.4375 0 L 6.4375 -51.109375 L 22.484375 -51.109375 C 30.828125 -51.109375 37.304688 -48.90625 41.921875 -44.5 C 46.535156 -40.09375 48.84375 -33.941406 48.84375 -26.046875 Z M 37.578125 -25.765625 C 37.578125 -36.742188 32.726562 -42.234375 23.03125 -42.234375 L 17.265625 -42.234375 L 17.265625 -8.953125 L 21.921875 -8.953125 C 32.359375 -8.953125 37.578125 -14.554688 37.578125 -25.765625 Z M 37.578125 -25.765625 "/></g></g></g><g fill="#003882" fill-opacity="1"><g transform="translate(497.069903, 710.658682)"><g><path d="M 17.09375 0 L 6.4375 0 L 6.4375 -51.109375 L 35.734375 -51.109375 L 35.734375 -42.234375 L 17.09375 -42.234375 L 17.09375 -29.046875 L 34.4375 -29.046875 L 34.4375 -20.203125 L 17.09375 -20.203125 Z M 17.09375 0 "/></g></g></g><g fill="#003882" fill-opacity="1"><g transform="translate(536.355846, 710.658682)"><g><path d="M 52.828125 -25.625 C 52.828125 -17.164062 50.726562 -10.660156 46.53125 -6.109375 C 42.332031 -1.566406 36.316406 0.703125 28.484375 0.703125 C 20.660156 0.703125 14.648438 -1.566406 10.453125 -6.109375 C 6.253906 -10.660156 4.15625 -17.1875 4.15625 -25.6875 C 4.15625 -34.195312 6.257812 -40.691406 10.46875 -45.171875 C 14.675781 -49.660156 20.707031 -51.90625 28.5625 -51.90625 C 36.414062 -51.90625 42.421875 -49.644531 46.578125 -45.125 C 50.742188 -40.601562 52.828125 -34.101562 52.828125 -25.625 Z M 15.515625 -25.625 C 15.515625 -19.914062 16.597656 -15.613281 18.765625 -12.71875 C 20.941406 -9.832031 24.179688 -8.390625 28.484375 -8.390625 C 37.128906 -8.390625 41.453125 -14.132812 41.453125 -25.625 C 41.453125 -37.132812 37.15625 -42.890625 28.5625 -42.890625 C 24.25 -42.890625 20.992188 -41.4375 18.796875 -38.53125 C 16.609375 -35.632812 15.515625 -31.332031 15.515625 -25.625 Z M 15.515625 -25.625 "/></g></g></g><g fill="#003882" fill-opacity="1"><g transform="translate(274.567845, 812.149014)"><g><path d="M 7.078125 -10.765625 C 6.046875 -10.765625 5.25 -10.378906 4.6875 -9.609375 C 4.125 -8.835938 3.84375 -7.765625 3.84375 -6.390625 C 3.84375 -3.523438 4.921875 -2.09375 7.078125 -2.09375 C 7.972656 -2.09375 9.066406 -2.316406 10.359375 -2.765625 L 10.359375 -0.484375 C 9.296875 -0.046875 8.117188 0.171875 6.828125 0.171875 C 4.953125 0.171875 3.519531 -0.390625 2.53125 -1.515625 C 1.539062 -2.648438 1.046875 -4.28125 1.046875 -6.40625 C 1.046875 -7.738281 1.285156 -8.90625 1.765625 -9.90625 C 2.253906 -10.914062 2.953125 -11.6875 3.859375 -12.21875 C 4.773438 -12.757812 5.847656 -13.03125 7.078125 -13.03125 C 8.328125 -13.03125 9.582031 -12.726562 10.84375 -12.125 L 9.953125 -9.921875 C 9.472656 -10.140625 8.988281 -10.332031 8.5 -10.5 C 8.019531 -10.675781 7.546875 -10.765625 7.078125 -10.765625 Z M 7.078125 -10.765625 "/></g></g><g transform="translate(286.037571, 812.149014)"><g><path d="M 3.546875 -4.9375 C 3.546875 -3.957031 3.703125 -3.21875 4.015625 -2.71875 C 4.335938 -2.226562 4.859375 -1.984375 5.578125 -1.984375 C 6.296875 -1.984375 6.8125 -2.226562 7.125 -2.71875 C 7.4375 -3.21875 7.59375 -3.957031 7.59375 -4.9375 C 7.59375 -5.90625 7.429688 -6.628906 7.109375 -7.109375 C 6.796875 -7.597656 6.28125 -7.84375 5.5625 -7.84375 C 4.84375 -7.84375 4.328125 -7.601562 4.015625 -7.125 C 3.703125 -6.644531 3.546875 -5.914062 3.546875 -4.9375 Z M 10.34375 -4.9375 C 10.34375 -3.332031 9.921875 -2.078125 9.078125 -1.171875 C 8.234375 -0.273438 7.054688 0.171875 5.546875 0.171875 C 4.597656 0.171875 3.765625 -0.03125 3.046875 -0.4375 C 2.328125 -0.851562 1.773438 -1.445312 1.390625 -2.21875 C 1.003906 -3 0.8125 -3.90625 0.8125 -4.9375 C 0.8125 -6.539062 1.226562 -7.785156 2.0625 -8.671875 C 2.90625 -9.566406 4.082031 -10.015625 5.59375 -10.015625 C 6.539062 -10.015625 7.375 -9.804688 8.09375 -9.390625 C 8.8125 -8.984375 9.363281 -8.394531 9.75 -7.625 C 10.144531 -6.863281 10.34375 -5.96875 10.34375 -4.9375 Z M 10.34375 -4.9375 "/></g></g><g transform="translate(297.182101, 812.149014)"><g><path d="M 6.796875 0.171875 C 5.648438 0.171875 4.75 -0.242188 4.09375 -1.078125 L 3.953125 -1.078125 C 4.046875 -0.253906 4.09375 0.21875 4.09375 0.34375 L 4.09375 4.328125 L 1.40625 4.328125 L 1.40625 -9.828125 L 3.59375 -9.828125 L 3.96875 -8.546875 L 4.09375 -8.546875 C 4.71875 -9.523438 5.644531 -10.015625 6.875 -10.015625 C 8.03125 -10.015625 8.9375 -9.566406 9.59375 -8.671875 C 10.25 -7.773438 10.578125 -6.53125 10.578125 -4.9375 C 10.578125 -3.882812 10.421875 -2.96875 10.109375 -2.1875 C 9.804688 -1.414062 9.367188 -0.828125 8.796875 -0.421875 C 8.234375 -0.0234375 7.566406 0.171875 6.796875 0.171875 Z M 6.015625 -7.859375 C 5.347656 -7.859375 4.863281 -7.65625 4.5625 -7.25 C 4.257812 -6.84375 4.101562 -6.171875 4.09375 -5.234375 L 4.09375 -4.953125 C 4.09375 -3.890625 4.25 -3.128906 4.5625 -2.671875 C 4.875 -2.222656 5.367188 -2 6.046875 -2 C 7.242188 -2 7.84375 -2.988281 7.84375 -4.96875 C 7.84375 -5.9375 7.695312 -6.660156 7.40625 -7.140625 C 7.113281 -7.617188 6.648438 -7.859375 6.015625 -7.859375 Z M 6.015625 -7.859375 "/></g></g><g transform="translate(308.572725, 812.149014)"><g><path d="M 0 -9.828125 L 2.9375 -9.828125 L 4.796875 -4.296875 C 4.953125 -3.816406 5.054688 -3.25 5.109375 -2.59375 L 5.171875 -2.59375 C 5.234375 -3.195312 5.359375 -3.765625 5.546875 -4.296875 L 7.359375 -9.828125 L 10.234375 -9.828125 L 6.078125 1.25 C 5.703125 2.28125 5.160156 3.050781 4.453125 3.5625 C 3.742188 4.070312 2.921875 4.328125 1.984375 4.328125 C 1.515625 4.328125 1.054688 4.273438 0.609375 4.171875 L 0.609375 2.046875 C 0.929688 2.117188 1.285156 2.15625 1.671875 2.15625 C 2.140625 2.15625 2.550781 2.007812 2.90625 1.71875 C 3.269531 1.4375 3.550781 1 3.75 0.40625 L 3.90625 -0.078125 Z M 0 -9.828125 "/></g></g><g transform="translate(318.811982, 812.149014)"><g><path d="M 6.890625 -10.015625 C 7.253906 -10.015625 7.554688 -9.988281 7.796875 -9.9375 L 7.59375 -7.421875 C 7.375 -7.472656 7.109375 -7.5 6.796875 -7.5 C 5.941406 -7.5 5.273438 -7.28125 4.796875 -6.84375 C 4.328125 -6.40625 4.09375 -5.789062 4.09375 -5 L 4.09375 0 L 1.40625 0 L 1.40625 -9.828125 L 3.4375 -9.828125 L 3.828125 -8.171875 L 3.96875 -8.171875 C 4.269531 -8.722656 4.679688 -9.164062 5.203125 -9.5 C 5.722656 -9.84375 6.285156 -10.015625 6.890625 -10.015625 Z M 6.890625 -10.015625 "/></g></g><g transform="translate(326.985809, 812.149014)"><g><path d="M 1.296875 -12.359375 C 1.296875 -13.234375 1.78125 -13.671875 2.75 -13.671875 C 3.71875 -13.671875 4.203125 -13.234375 4.203125 -12.359375 C 4.203125 -11.953125 4.082031 -11.628906 3.84375 -11.390625 C 3.601562 -11.160156 3.238281 -11.046875 2.75 -11.046875 C 1.78125 -11.046875 1.296875 -11.484375 1.296875 -12.359375 Z M 4.09375 0 L 1.40625 0 L 1.40625 -9.828125 L 4.09375 -9.828125 Z M 4.09375 0 "/></g></g><g transform="translate(332.478973, 812.149014)"><g><path d="M 9.953125 -9.828125 L 9.953125 -8.46875 L 8.421875 -8.0625 C 8.703125 -7.625 8.84375 -7.132812 8.84375 -6.59375 C 8.84375 -5.539062 8.472656 -4.71875 7.734375 -4.125 C 7.003906 -3.539062 5.984375 -3.25 4.671875 -3.25 L 4.1875 -3.265625 L 3.796875 -3.3125 C 3.523438 -3.101562 3.390625 -2.867188 3.390625 -2.609375 C 3.390625 -2.222656 3.878906 -2.03125 4.859375 -2.03125 L 6.53125 -2.03125 C 7.601562 -2.03125 8.421875 -1.796875 8.984375 -1.328125 C 9.554688 -0.867188 9.84375 -0.191406 9.84375 0.703125 C 9.84375 1.847656 9.363281 2.738281 8.40625 3.375 C 7.445312 4.007812 6.070312 4.328125 4.28125 4.328125 C 2.90625 4.328125 1.851562 4.085938 1.125 3.609375 C 0.40625 3.128906 0.046875 2.457031 0.046875 1.59375 C 0.046875 1.007812 0.226562 0.515625 0.59375 0.109375 C 0.96875 -0.285156 1.515625 -0.566406 2.234375 -0.734375 C 1.953125 -0.859375 1.707031 -1.050781 1.5 -1.3125 C 1.300781 -1.582031 1.203125 -1.863281 1.203125 -2.15625 C 1.203125 -2.53125 1.3125 -2.84375 1.53125 -3.09375 C 1.75 -3.34375 2.0625 -3.585938 2.46875 -3.828125 C 1.957031 -4.054688 1.550781 -4.414062 1.25 -4.90625 C 0.945312 -5.394531 0.796875 -5.972656 0.796875 -6.640625 C 0.796875 -7.710938 1.144531 -8.539062 1.84375 -9.125 C 2.539062 -9.71875 3.535156 -10.015625 4.828125 -10.015625 C 5.097656 -10.015625 5.421875 -9.988281 5.796875 -9.9375 C 6.179688 -9.882812 6.425781 -9.847656 6.53125 -9.828125 Z M 2.375 1.390625 C 2.375 1.753906 2.550781 2.039062 2.90625 2.25 C 3.257812 2.46875 3.753906 2.578125 4.390625 2.578125 C 5.359375 2.578125 6.113281 2.441406 6.65625 2.171875 C 7.195312 1.910156 7.46875 1.550781 7.46875 1.09375 C 7.46875 0.726562 7.304688 0.472656 6.984375 0.328125 C 6.660156 0.191406 6.164062 0.125 5.5 0.125 L 4.109375 0.125 C 3.609375 0.125 3.191406 0.238281 2.859375 0.46875 C 2.535156 0.695312 2.375 1.003906 2.375 1.390625 Z M 3.34375 -6.609375 C 3.34375 -6.078125 3.460938 -5.65625 3.703125 -5.34375 C 3.953125 -5.03125 4.328125 -4.875 4.828125 -4.875 C 5.328125 -4.875 5.691406 -5.03125 5.921875 -5.34375 C 6.160156 -5.65625 6.28125 -6.078125 6.28125 -6.609375 C 6.28125 -7.796875 5.796875 -8.390625 4.828125 -8.390625 C 3.835938 -8.390625 3.34375 -7.796875 3.34375 -6.609375 Z M 3.34375 -6.609375 "/></g></g><g transform="translate(342.647917, 812.149014)"><g><path d="M 10.484375 0 L 7.796875 0 L 7.796875 -5.734375 C 7.796875 -7.148438 7.269531 -7.859375 6.21875 -7.859375 C 5.46875 -7.859375 4.925781 -7.601562 4.59375 -7.09375 C 4.257812 -6.59375 4.09375 -5.769531 4.09375 -4.625 L 4.09375 0 L 1.40625 0 L 1.40625 -13.671875 L 4.09375 -13.671875 L 4.09375 -10.890625 C 4.09375 -10.671875 4.070312 -10.160156 4.03125 -9.359375 L 3.96875 -8.5625 L 4.109375 -8.5625 C 4.703125 -9.53125 5.648438 -10.015625 6.953125 -10.015625 C 8.109375 -10.015625 8.984375 -9.703125 9.578125 -9.078125 C 10.179688 -8.453125 10.484375 -7.5625 10.484375 -6.40625 Z M 10.484375 0 "/></g></g><g transform="translate(354.477995, 812.149014)"><g><path d="M 5.546875 -1.953125 C 6.015625 -1.953125 6.578125 -2.054688 7.234375 -2.265625 L 7.234375 -0.265625 C 6.566406 0.0234375 5.742188 0.171875 4.765625 0.171875 C 3.703125 0.171875 2.925781 -0.0976562 2.4375 -0.640625 C 1.945312 -1.179688 1.703125 -1.992188 1.703125 -3.078125 L 1.703125 -7.8125 L 0.40625 -7.8125 L 0.40625 -8.953125 L 1.890625 -9.84375 L 2.65625 -11.921875 L 4.375 -11.921875 L 4.375 -9.828125 L 7.125 -9.828125 L 7.125 -7.8125 L 4.375 -7.8125 L 4.375 -3.078125 C 4.375 -2.691406 4.476562 -2.40625 4.6875 -2.21875 C 4.90625 -2.039062 5.191406 -1.953125 5.546875 -1.953125 Z M 5.546875 -1.953125 "/></g></g></g><g fill="#003882" fill-opacity="1"><g transform="translate(362.282681, 812.149014)"><g/></g><g transform="translate(366.958462, 812.149014)"><g/></g><g transform="translate(371.634243, 812.149014)"><g/></g><g transform="translate(376.310024, 812.149014)"><g/></g><g transform="translate(380.985805, 812.149014)"><g/></g></g><g fill="#003882" fill-opacity="1"><g transform="translate(385.661586, 812.149014)"><g><path d="M 9.703125 0 L 0.71875 0 L 0.71875 -1.890625 L 3.953125 -5.15625 C 4.898438 -6.132812 5.519531 -6.8125 5.8125 -7.1875 C 6.113281 -7.5625 6.328125 -7.910156 6.453125 -8.234375 C 6.578125 -8.554688 6.640625 -8.890625 6.640625 -9.234375 C 6.640625 -9.753906 6.5 -10.140625 6.21875 -10.390625 C 5.9375 -10.640625 5.554688 -10.765625 5.078125 -10.765625 C 4.578125 -10.765625 4.09375 -10.648438 3.625 -10.421875 C 3.15625 -10.191406 2.664062 -9.867188 2.15625 -9.453125 L 0.6875 -11.203125 C 1.320312 -11.734375 1.847656 -12.109375 2.265625 -12.328125 C 2.679688 -12.554688 3.132812 -12.726562 3.625 -12.84375 C 4.113281 -12.96875 4.664062 -13.03125 5.28125 -13.03125 C 6.082031 -13.03125 6.789062 -12.882812 7.40625 -12.59375 C 8.019531 -12.300781 8.492188 -11.890625 8.828125 -11.359375 C 9.171875 -10.835938 9.34375 -10.234375 9.34375 -9.546875 C 9.34375 -8.960938 9.238281 -8.410156 9.03125 -7.890625 C 8.820312 -7.367188 8.5 -6.832031 8.0625 -6.28125 C 7.625 -5.738281 6.851562 -4.96875 5.75 -3.96875 L 4.109375 -2.40625 L 4.109375 -2.28125 L 9.703125 -2.28125 Z M 9.703125 0 "/></g></g><g transform="translate(395.935999, 812.149014)"><g><path d="M 9.640625 -6.421875 C 9.640625 -4.179688 9.269531 -2.519531 8.53125 -1.4375 C 7.789062 -0.363281 6.660156 0.171875 5.140625 0.171875 C 3.648438 0.171875 2.53125 -0.382812 1.78125 -1.5 C 1.03125 -2.613281 0.65625 -4.253906 0.65625 -6.421875 C 0.65625 -8.691406 1.019531 -10.363281 1.75 -11.4375 C 2.476562 -12.507812 3.609375 -13.046875 5.140625 -13.046875 C 6.617188 -13.046875 7.738281 -12.484375 8.5 -11.359375 C 9.257812 -10.234375 9.640625 -8.585938 9.640625 -6.421875 Z M 3.34375 -6.421875 C 3.34375 -4.847656 3.476562 -3.71875 3.75 -3.03125 C 4.03125 -2.351562 4.492188 -2.015625 5.140625 -2.015625 C 5.765625 -2.015625 6.21875 -2.359375 6.5 -3.046875 C 6.78125 -3.742188 6.921875 -4.867188 6.921875 -6.421875 C 6.921875 -8.003906 6.78125 -9.140625 6.5 -9.828125 C 6.21875 -10.515625 5.765625 -10.859375 5.140625 -10.859375 C 4.492188 -10.859375 4.03125 -10.515625 3.75 -9.828125 C 3.476562 -9.140625 3.34375 -8.003906 3.34375 -6.421875 Z M 3.34375 -6.421875 "/></g></g><g transform="translate(406.210412, 812.149014)"><g><path d="M 9.703125 0 L 0.71875 0 L 0.71875 -1.890625 L 3.953125 -5.15625 C 4.898438 -6.132812 5.519531 -6.8125 5.8125 -7.1875 C 6.113281 -7.5625 6.328125 -7.910156 6.453125 -8.234375 C 6.578125 -8.554688 6.640625 -8.890625 6.640625 -9.234375 C 6.640625 -9.753906 6.5 -10.140625 6.21875 -10.390625 C 5.9375 -10.640625 5.554688 -10.765625 5.078125 -10.765625 C 4.578125 -10.765625 4.09375 -10.648438 3.625 -10.421875 C 3.15625 -10.191406 2.664062 -9.867188 2.15625 -9.453125 L 0.6875 -11.203125 C 1.320312 -11.734375 1.847656 -12.109375 2.265625 -12.328125 C 2.679688 -12.554688 3.132812 -12.726562 3.625 -12.84375 C 4.113281 -12.96875 4.664062 -13.03125 5.28125 -13.03125 C 6.082031 -13.03125 6.789062 -12.882812 7.40625 -12.59375 C 8.019531 -12.300781 8.492188 -11.890625 8.828125 -11.359375 C 9.171875 -10.835938 9.34375 -10.234375 9.34375 -9.546875 C 9.34375 -8.960938 9.238281 -8.410156 9.03125 -7.890625 C 8.820312 -7.367188 8.5 -6.832031 8.0625 -6.28125 C 7.625 -5.738281 6.851562 -4.96875 5.75 -3.96875 L 4.109375 -2.40625 L 4.109375 -2.28125 L 9.703125 -2.28125 Z M 9.703125 0 "/></g></g><g transform="translate(416.484825, 812.149014)"><g><path d="M 9.703125 0 L 0.71875 0 L 0.71875 -1.890625 L 3.953125 -5.15625 C 4.898438 -6.132812 5.519531 -6.8125 5.8125 -7.1875 C 6.113281 -7.5625 6.328125 -7.910156 6.453125 -8.234375 C 6.578125 -8.554688 6.640625 -8.890625 6.640625 -9.234375 C 6.640625 -9.753906 6.5 -10.140625 6.21875 -10.390625 C 5.9375 -10.640625 5.554688 -10.765625 5.078125 -10.765625 C 4.578125 -10.765625 4.09375 -10.648438 3.625 -10.421875 C 3.15625 -10.191406 2.664062 -9.867188 2.15625 -9.453125 L 0.6875 -11.203125 C 1.320312 -11.734375 1.847656 -12.109375 2.265625 -12.328125 C 2.679688 -12.554688 3.132812 -12.726562 3.625 -12.84375 C 4.113281 -12.96875 4.664062 -13.03125 5.28125 -13.03125 C 6.082031 -13.03125 6.789062 -12.882812 7.40625 -12.59375 C 8.019531 -12.300781 8.492188 -11.890625 8.828125 -11.359375 C 9.171875 -10.835938 9.34375 -10.234375 9.34375 -9.546875 C 9.34375 -8.960938 9.238281 -8.410156 9.03125 -7.890625 C 8.820312 -7.367188 8.5 -6.832031 8.0625 -6.28125 C 7.625 -5.738281 6.851562 -4.96875 5.75 -3.96875 L 4.109375 -2.40625 L 4.109375 -2.28125 L 9.703125 -2.28125 Z M 9.703125 0 "/></g></g><g transform="translate(426.759238, 812.149014)"><g/></g><g transform="translate(431.435019, 812.149014)"><g><path d="M 4.296875 0 L 1.625 0 L 1.625 -12.84375 L 8.984375 -12.84375 L 8.984375 -10.625 L 4.296875 -10.625 L 4.296875 -7.296875 L 8.65625 -7.296875 L 8.65625 -5.078125 L 4.296875 -5.078125 Z M 4.296875 0 "/></g></g><g transform="translate(441.313925, 812.149014)"><g><path d="M 7.640625 0 L 7.125 -1.34375 L 7.0625 -1.34375 C 6.601562 -0.769531 6.132812 -0.375 5.65625 -0.15625 C 5.1875 0.0625 4.566406 0.171875 3.796875 0.171875 C 2.847656 0.171875 2.101562 -0.09375 1.5625 -0.625 C 1.019531 -1.164062 0.75 -1.9375 0.75 -2.9375 C 0.75 -3.976562 1.113281 -4.742188 1.84375 -5.234375 C 2.570312 -5.734375 3.675781 -6.007812 5.15625 -6.0625 L 6.859375 -6.125 L 6.859375 -6.546875 C 6.859375 -7.546875 6.347656 -8.046875 5.328125 -8.046875 C 4.546875 -8.046875 3.625 -7.804688 2.5625 -7.328125 L 1.671875 -9.140625 C 2.796875 -9.734375 4.050781 -10.03125 5.4375 -10.03125 C 6.75 -10.03125 7.753906 -9.742188 8.453125 -9.171875 C 9.160156 -8.597656 9.515625 -7.722656 9.515625 -6.546875 L 9.515625 0 Z M 6.859375 -4.546875 L 5.8125 -4.515625 C 5.039062 -4.492188 4.460938 -4.351562 4.078125 -4.09375 C 3.691406 -3.832031 3.5 -3.441406 3.5 -2.921875 C 3.5 -2.160156 3.9375 -1.78125 4.8125 -1.78125 C 5.425781 -1.78125 5.921875 -1.957031 6.296875 -2.3125 C 6.671875 -2.675781 6.859375 -3.15625 6.859375 -3.75 Z M 6.859375 -4.546875 "/></g></g><g transform="translate(452.185994, 812.149014)"><g><path d="M 6.890625 -10.015625 C 7.253906 -10.015625 7.554688 -9.988281 7.796875 -9.9375 L 7.59375 -7.421875 C 7.375 -7.472656 7.109375 -7.5 6.796875 -7.5 C 5.941406 -7.5 5.273438 -7.28125 4.796875 -6.84375 C 4.328125 -6.40625 4.09375 -5.789062 4.09375 -5 L 4.09375 0 L 1.40625 0 L 1.40625 -9.828125 L 3.4375 -9.828125 L 3.828125 -8.171875 L 3.96875 -8.171875 C 4.269531 -8.722656 4.679688 -9.164062 5.203125 -9.5 C 5.722656 -9.84375 6.285156 -10.015625 6.890625 -10.015625 Z M 6.890625 -10.015625 "/></g></g><g transform="translate(460.359821, 812.149014)"><g><path d="M 7.640625 0 L 7.125 -1.34375 L 7.0625 -1.34375 C 6.601562 -0.769531 6.132812 -0.375 5.65625 -0.15625 C 5.1875 0.0625 4.566406 0.171875 3.796875 0.171875 C 2.847656 0.171875 2.101562 -0.09375 1.5625 -0.625 C 1.019531 -1.164062 0.75 -1.9375 0.75 -2.9375 C 0.75 -3.976562 1.113281 -4.742188 1.84375 -5.234375 C 2.570312 -5.734375 3.675781 -6.007812 5.15625 -6.0625 L 6.859375 -6.125 L 6.859375 -6.546875 C 6.859375 -7.546875 6.347656 -8.046875 5.328125 -8.046875 C 4.546875 -8.046875 3.625 -7.804688 2.5625 -7.328125 L 1.671875 -9.140625 C 2.796875 -9.734375 4.050781 -10.03125 5.4375 -10.03125 C 6.75 -10.03125 7.753906 -9.742188 8.453125 -9.171875 C 9.160156 -8.597656 9.515625 -7.722656 9.515625 -6.546875 L 9.515625 0 Z M 6.859375 -4.546875 L 5.8125 -4.515625 C 5.039062 -4.492188 4.460938 -4.351562 4.078125 -4.09375 C 3.691406 -3.832031 3.5 -3.441406 3.5 -2.921875 C 3.5 -2.160156 3.9375 -1.78125 4.8125 -1.78125 C 5.425781 -1.78125 5.921875 -1.957031 6.296875 -2.3125 C 6.671875 -2.675781 6.859375 -3.15625 6.859375 -3.75 Z M 6.859375 -4.546875 "/></g></g><g transform="translate(471.231891, 812.149014)"><g><path d="M 10.484375 0 L 7.796875 0 L 7.796875 -5.734375 C 7.796875 -7.148438 7.269531 -7.859375 6.21875 -7.859375 C 5.46875 -7.859375 4.925781 -7.601562 4.59375 -7.09375 C 4.257812 -6.59375 4.09375 -5.769531 4.09375 -4.625 L 4.09375 0 L 1.40625 0 L 1.40625 -13.671875 L 4.09375 -13.671875 L 4.09375 -10.890625 C 4.09375 -10.671875 4.070312 -10.160156 4.03125 -9.359375 L 3.96875 -8.5625 L 4.109375 -8.5625 C 4.703125 -9.53125 5.648438 -10.015625 6.953125 -10.015625 C 8.109375 -10.015625 8.984375 -9.703125 9.578125 -9.078125 C 10.179688 -8.453125 10.484375 -7.5625 10.484375 -6.40625 Z M 10.484375 0 "/></g></g><g transform="translate(483.061968, 812.149014)"><g/></g><g transform="translate(487.737749, 812.149014)"><g><path d="M 1.625 0 L 1.625 -12.84375 L 4.34375 -12.84375 L 4.34375 0 Z M 1.625 0 "/></g></g><g transform="translate(493.696733, 812.149014)"><g><path d="M 8.25 0 L 0.484375 0 L 0.484375 -1.578125 L 5.03125 -7.78125 L 0.75 -7.78125 L 0.75 -9.828125 L 8.09375 -9.828125 L 8.09375 -8.09375 L 3.65625 -2.046875 L 8.25 -2.046875 Z M 8.25 0 "/></g></g><g transform="translate(502.477005, 812.149014)"><g><path d="M 8.25 0 L 0.484375 0 L 0.484375 -1.578125 L 5.03125 -7.78125 L 0.75 -7.78125 L 0.75 -9.828125 L 8.09375 -9.828125 L 8.09375 -8.09375 L 3.65625 -2.046875 L 8.25 -2.046875 Z M 8.25 0 "/></g></g><g transform="translate(511.257278, 812.149014)"><g><path d="M 7.640625 0 L 7.125 -1.34375 L 7.0625 -1.34375 C 6.601562 -0.769531 6.132812 -0.375 5.65625 -0.15625 C 5.1875 0.0625 4.566406 0.171875 3.796875 0.171875 C 2.847656 0.171875 2.101562 -0.09375 1.5625 -0.625 C 1.019531 -1.164062 0.75 -1.9375 0.75 -2.9375 C 0.75 -3.976562 1.113281 -4.742188 1.84375 -5.234375 C 2.570312 -5.734375 3.675781 -6.007812 5.15625 -6.0625 L 6.859375 -6.125 L 6.859375 -6.546875 C 6.859375 -7.546875 6.347656 -8.046875 5.328125 -8.046875 C 4.546875 -8.046875 3.625 -7.804688 2.5625 -7.328125 L 1.671875 -9.140625 C 2.796875 -9.734375 4.050781 -10.03125 5.4375 -10.03125 C 6.75 -10.03125 7.753906 -9.742188 8.453125 -9.171875 C 9.160156 -8.597656 9.515625 -7.722656 9.515625 -6.546875 L 9.515625 0 Z M 6.859375 -4.546875 L 5.8125 -4.515625 C 5.039062 -4.492188 4.460938 -4.351562 4.078125 -4.09375 C 3.691406 -3.832031 3.5 -3.441406 3.5 -2.921875 C 3.5 -2.160156 3.9375 -1.78125 4.8125 -1.78125 C 5.425781 -1.78125 5.921875 -1.957031 6.296875 -2.3125 C 6.671875 -2.675781 6.859375 -3.15625 6.859375 -3.75 Z M 6.859375 -4.546875 "/></g></g><g transform="translate(522.129347, 812.149014)"><g><path d="M 5.546875 -1.953125 C 6.015625 -1.953125 6.578125 -2.054688 7.234375 -2.265625 L 7.234375 -0.265625 C 6.566406 0.0234375 5.742188 0.171875 4.765625 0.171875 C 3.703125 0.171875 2.925781 -0.0976562 2.4375 -0.640625 C 1.945312 -1.179688 1.703125 -1.992188 1.703125 -3.078125 L 1.703125 -7.8125 L 0.40625 -7.8125 L 0.40625 -8.953125 L 1.890625 -9.84375 L 2.65625 -11.921875 L 4.375 -11.921875 L 4.375 -9.828125 L 7.125 -9.828125 L 7.125 -7.8125 L 4.375 -7.8125 L 4.375 -3.078125 C 4.375 -2.691406 4.476562 -2.40625 4.6875 -2.21875 C 4.90625 -2.039062 5.191406 -1.953125 5.546875 -1.953125 Z M 5.546875 -1.953125 "/></g></g><g transform="translate(529.942823, 812.149014)"><g><path d="M 1.296875 -12.359375 C 1.296875 -13.234375 1.78125 -13.671875 2.75 -13.671875 C 3.71875 -13.671875 4.203125 -13.234375 4.203125 -12.359375 C 4.203125 -11.953125 4.082031 -11.628906 3.84375 -11.390625 C 3.601562 -11.160156 3.238281 -11.046875 2.75 -11.046875 C 1.78125 -11.046875 1.296875 -11.484375 1.296875 -12.359375 Z M 4.09375 0 L 1.40625 0 L 1.40625 -9.828125 L 4.09375 -9.828125 Z M 4.09375 0 "/></g></g></g><g clip-path="url(#id3)"><path fill="#003882" d="M 374.628906 798.113281 C 370.910156 798.113281 367.878906 801.144531 367.878906 804.863281 C 367.878906 808.582031 370.910156 811.613281 374.628906 811.613281 C 378.347656 811.613281 381.378906 808.582031 381.378906 804.863281 C 381.378906 801.144531 378.347656 798.113281 374.628906 798.113281 Z M 374.628906 799.464844 C 377.621094 799.464844 380.027344 801.875 380.027344 804.863281 C 380.027344 807.855469 377.621094 810.261719 374.628906 810.261719 C 371.636719 810.261719 369.230469 807.855469 369.230469 804.863281 C 369.230469 801.875 371.636719 799.464844 374.628906 799.464844 Z M 374.628906 801.492188 C 373.761719 801.492188 372.898438 801.820312 372.242188 802.476562 C 370.929688 803.789062 370.929688 805.9375 372.242188 807.25 C 373.554688 808.5625 375.703125 808.5625 377.015625 807.25 L 376.0625 806.296875 C 375.265625 807.089844 373.992188 807.089844 373.195312 806.296875 C 372.402344 805.5 372.402344 804.226562 373.195312 803.433594 C 373.992188 802.636719 375.265625 802.636719 376.0625 803.433594 L 377.015625 802.476562 C 376.359375 801.820312 375.492188 801.492188 374.628906 801.492188 Z M 374.628906 801.492188 " fill-opacity="1" fill-rule="nonzero"/></g></svg>